# xmcd
#
# Track frame offsets:
#	150
#	14997
#	33239
#	52056
#	65308
#	81504
#	95784
#	112801
#	127709
#	141325
#	158817
#
# Disc length: 2337 seconds
#
# Revision: 0
# Processed by: cddbd v1.5PL3 Copyright (c) Steve Scherf et al.
# Submitted via: audiograbber 1.82.01
#
DISCID=96091f0b
DTITLE=Toni Dimitrova - Kak si Toni
DYEAR=1999
DGENRE=Pop
TTITLE0=kak si Toni
TTITLE1=Balkanski sindrom
TTITLE2=Prilivat na lubovta
TTITLE3=Molba
TTITLE4=Za koi li pyt
TTITLE5=Hei napomni mi
TTITLE6=Burgasko liato
TTITLE7=Nekazani dumi
TTITLE8=V sybota na 18..
TTITLE9=Ti lubov
TTITLE10=starecyt i moreto
EXTD=
EXTT0=
EXTT1=
EXTT2=
EXTT3=
EXTT4=
EXTT5=
EXTT6=
EXTT7=
EXTT8=
EXTT9=
EXTT10=
PLAYORDER=
